<svg aria-hidden="true" style="position: absolute; width: 0; height: 0; overflow: hidden;" version="1.1" xmlns="http://www.w3.org/2000/svg" xmlns:xlink="http://www.w3.org/1999/xlink">
<defs>
<symbol id="icon-menu_40px" viewBox="0 0 32 32">
<path d="M6.4 11.733v-2.133h19.2v2.133h-19.2zM6.4 17.067h19.2v-2.133h-19.2v2.133zM6.4 22.4h19.2v-2.133h-19.2v2.133z"></path>
</symbol>
<symbol id="icon-btn" viewBox="0 0 26 32">
<path fill="none" stroke="#d41443" style="stroke: var(--color1, #d41443)" stroke-linejoin="round" stroke-linecap="round" stroke-miterlimit="4" stroke-width="6.4" d="M5.172 3.2l14.169 12.8-14.169 12.8"></path>
</symbol>
<symbol id="icon-btn-white" viewBox="0 0 26 32">
<path fill="none" stroke="#fff" style="stroke: var(--color1, #fff)" stroke-linejoin="round" stroke-linecap="round" stroke-miterlimit="4" stroke-width="6.4" d="M5.172 3.2l14.169 12.8-14.169 12.8"></path>
</symbol>
<symbol id="icon-facebook" viewBox="0 0 16 32">
<path fill="#fff" style="fill: var(--color1, #fff)" d="M14.143 15.972h-4.034v14.865h-6.112v-14.865h-2.907v-5.224h2.907v-3.381c0-2.418 1.142-6.203 6.166-6.203l4.527 0.019v5.071h-3.285c-0.539 0-1.296 0.271-1.296 1.424v3.075h4.567l-0.534 5.219z"></path>
</symbol>
<symbol id="icon-git" viewBox="0 0 32 32">
<path fill="#fff" style="fill: var(--color1, #fff)" d="M16 0c-8.788 0-16 7.212-16 16 0 7.499 5.262 14.312 12.25 16v-5.293c-0.692 0.152-1.33 0.156-2.034-0.052-0.946-0.279-1.714-0.909-2.284-1.869-0.364-0.613-1.008-1.278-1.68-1.23l-0.165-1.868c1.453-0.124 2.711 0.886 3.457 2.14 0.332 0.558 0.713 0.884 1.203 1.029 0.473 0.14 0.982 0.072 1.574-0.137 0.149-1.186 0.692-1.63 1.102-2.255v-0.001c-4.167-0.622-5.828-2.832-6.488-4.578-0.874-2.317-0.405-5.212 1.14-7.041 0.030-0.036 0.084-0.129 0.063-0.194-0.708-2.139 0.155-3.909 0.187-4.097 0.817 0.242 0.95-0.243 3.551 1.337l0.449 0.27c0.188 0.112 0.129 0.048 0.317 0.034 1.086-0.295 2.23-0.458 3.358-0.472 1.136 0.015 2.273 0.178 3.404 0.484l0.145 0.015c-0.013-0.002 0.040-0.009 0.127-0.062 3.248-1.968 3.132-1.324 4.003-1.608 0.032 0.188 0.883 1.987 0.182 4.099-0.095 0.291 2.816 2.956 1.203 7.235-0.659 1.746-2.32 3.957-6.487 4.578v0.001c0.534 0.814 1.176 1.247 1.173 2.927v6.608c6.988-1.688 12.25-8.501 12.25-16 0-8.788-7.212-16-16-16v0z"></path>
</symbol>
<symbol id="icon-telegram" viewBox="0 0 44 32">
<path fill="#fff" style="fill: var(--color1, #fff)" d="M17.343 21.048l-0.675 8.86c0.966 0 1.384-0.387 1.885-0.852l4.527-4.038 9.381 6.412c1.72 0.895 2.933 0.424 3.397-1.477l6.157-26.929 0.002-0.002c0.546-2.374-0.92-3.302-2.596-2.72l-36.194 12.933c-2.47 0.895-2.433 2.18-0.42 2.762l9.253 2.686 21.494-12.552c1.011-0.625 1.931-0.279 1.175 0.346l-17.386 14.57z"></path>
</symbol>
<symbol id="icon-close-btn" viewBox="0 0 32 32">
<path fill="none" stroke="#fff" stroke-width="2" stroke-miterlimit="4" stroke-linecap="butt" stroke-linejoin="miter" style="stroke: var(--color1, #fff)" d="M2.519 2l26.963 28"></path>
<path fill="none" stroke="#fff" stroke-width="2" stroke-miterlimit="4" stroke-linecap="butt" stroke-linejoin="miter" style="stroke: var(--color1, #fff)" d="M2 29.481l28-26.963"></path>
</symbol>
<symbol id="icon-right-arrow" viewBox="0 0 22 32">
<path fill="none" stroke="#d41443" stroke-width="6.4" stroke-miterlimit="4" stroke-linecap="round" stroke-linejoin="round" style="stroke: var(--color1, #d41443)" d="M3.321 3.2l14.974 12.8-14.974 12.8"></path>
</symbol>
<symbol id="icon-burger_menu" viewBox="0 0 48 32">
<path d="M0 5.333v-5.333h48v5.333h-48zM0 18.667h48v-5.333h-48v5.333zM0 32h48v-5.333h-48v5.333z"></path>
</symbol>
<symbol id="icon-quotemark" width="54" height="40" viewBox="0 0 54 40" fill="#E1E1E1">
<path d="M40.0179 2.59234e-06C42.4286 2.80309e-06 44.7054 0.650413 46.8482 1.95122C48.9911 3.25204 50.7321 5.12196 52.0714 7.56098C53.3571 10 54 12.8726 54 16.1789C54 19.4851 53.1964 22.71 51.5893 25.8537C51.0536 26.9919 50.0893 28.4553 48.6964 30.2439C47.25 32.0325 45.9107 33.5772 44.6786 34.878L39.6161 40L36 33.9837C38.5179 32.4119 40.7411 30.4607 42.6696 28.1301C44.5982 25.8537 45.5625 23.7669 45.5625 21.8699C45.5625 20.8943 45.3482 20.1084 44.9196 19.5122C43.0446 20.8672 40.9554 21.5447 38.6518 21.5447C36.9911 21.5447 35.4107 21.0298 33.9107 20C32.3571 19.0244 31.125 17.7236 30.2143 16.0976C29.25 14.5257 28.7679 12.8997 28.7679 11.2195C28.7679 9.32249 29.3304 7.50678 30.4554 5.77236C31.5268 4.03794 32.9464 2.62873 34.7143 1.54472C36.4286 0.51491 38.1964 2.43311e-06 40.0179 2.59234e-06ZM11.1696 7.03482e-08C13.5804 2.81099e-07 15.8571 0.65041 18 1.95122C20.1429 3.25203 21.8839 5.12195 23.2232 7.56098C24.5089 10 25.1518 12.8726 25.1518 16.1789C25.1518 18.5095 24.8571 20.5962 24.2679 22.439C23.6786 24.336 22.6607 26.3144 21.2143 28.374C19.8214 30.3252 18.5089 31.9512 17.2768 33.252C16.0446 34.607 13.9018 36.8564 10.8482 40L7.23214 33.9837C9.75 32.4119 11.9732 30.4607 13.9018 28.1301C15.8304 25.8537 16.7946 23.7669 16.7946 21.8699C16.7946 20.8943 16.5804 20.1084 16.1518 19.5122C14.2768 20.8672 12.1875 21.5447 9.88393 21.5447C8.22321 21.5447 6.64285 21.0298 5.14285 20C3.58928 19.0244 2.35714 17.7236 1.44643 16.0976C0.482142 14.5257 -1.44552e-06 12.8997 -1.29863e-06 11.2195C-1.13278e-06 9.32249 0.535712 7.50677 1.60714 5.77236C2.67857 4.03794 4.09821 2.62873 5.86607 1.54472C7.58036 0.514908 9.34821 -8.88862e-08 11.1696 7.03482e-08Z" fill="#E1E1E1"/>
</symbol>
<symbol id="icon-dots-divider" viewBox="0 0 32 4" fill="none">
<circle cx="16" cy="2" r="2" fill="#C7133E"/>
<circle cx="2" cy="2" r="2" fill="#C7133E"/>
<circle cx="30" cy="2" r="2" fill="#C7133E"/>
</symbol>
<symbol id="icon-slider-dot" width="12" height="12" viewBox="0 0 12 12" fill="none">
<circle cx="6" cy="6" r="6" fill="#D9D9D9"/>
</symbol>
<symbol id="icon-slider-home" width="13" height="12" viewBox="0 0 13 12" fill="none">
<path d="M12.8449 5.85484C13.0696 5.60772 13.0479 5.22897 12.7964 5.00908L7.25687 0.161935C7.00543 -0.0579491 6.60231 -0.0533429 6.35616 0.172319L0.797761 5.26751C0.551613 5.49318 0.539532 5.87145 0.771013 6.11206L0.91037 6.25719C1.14157 6.49781 1.51527 6.52649 1.74453 6.32107L2.15994 5.94907V11.3953C2.15994 11.7295 2.43069 12 2.7646 12H4.93127C5.26518 12 5.53594 11.7295 5.53594 11.3953V7.58515H8.29956V11.3953C8.29475 11.7292 8.53367 11.9998 8.86757 11.9998H11.1637C11.4976 11.9998 11.7684 11.7292 11.7684 11.3951V6.02575C11.7684 6.02575 11.8831 6.12628 12.0247 6.25069C12.166 6.37485 12.4627 6.2753 12.6874 6.02794L12.8449 5.85484Z" fill="#D31342"/>
</symbol>
</defs>
</svg>
